<svg width="100" height="100" viewBox="0 0 100 100" fill="none" xmlns="http://www.w3.org/2000/svg">
<path d="M72.1996 98C71.5189 98.0041 70.8644 97.738 70.3796 97.26L27.8096 56.21C26.9743 55.4058 26.3097 54.4413 25.8558 53.3743C25.4019 52.3072 25.168 51.1596 25.168 50C25.168 48.8404 25.4019 47.6928 25.8558 46.6258C26.3097 45.5587 26.9743 44.5942 27.8096 43.79L70.3796 2.79002C70.6117 2.49916 70.903 2.26106 71.2343 2.09157C71.5655 1.92208 71.929 1.82509 72.3007 1.80704C72.6723 1.78899 73.0435 1.85031 73.3896 1.98691C73.7357 2.12351 74.0487 2.33226 74.3079 2.59927C74.567 2.86627 74.7663 3.18541 74.8925 3.53544C75.0187 3.88546 75.0688 4.25835 75.0397 4.62929C75.0105 5.00022 74.9027 5.36069 74.7234 5.6867C74.544 6.01271 74.2973 6.29678 73.9996 6.52002L31.4596 47.57C31.1336 47.8852 30.8744 48.2628 30.6973 48.6803C30.5203 49.0977 30.429 49.5466 30.429 50C30.429 50.4535 30.5203 50.9023 30.6973 51.3198C30.8744 51.7373 31.1336 52.1148 31.4596 52.43L73.9996 93.48C74.3744 93.8426 74.6329 94.3083 74.7423 94.8182C74.8518 95.328 74.8072 95.8588 74.6143 96.3432C74.4214 96.8276 74.0889 97.2438 73.6589 97.5388C73.229 97.8338 72.721 97.9943 72.1996 98V98Z" fill="black"/>
</svg>
