<svg width="50" height="50" viewBox="0 0 50 50" fill="none" xmlns="http://www.w3.org/2000/svg">
<path d="M37.931 8.61617V0.235352C31.3865 0.235352 26.0605 7.93012 26.0605 17.3894H31.8601C31.8581 12.5522 34.5828 8.61617 37.931 8.61617Z" fill="white"/>
<path d="M49.7995 17.3896H41.7509L26.0586 40.3141V49.8635H49.7995V41.4827H33.3298L49.7995 17.3896Z" fill="white"/>
<path d="M11.8725 0.235352C5.32591 0.235352 0 7.93303 0 17.3923V32.7092H5.80162V17.3923C5.80162 12.5522 8.52429 8.61617 11.8725 8.61617C15.2206 8.61617 17.9453 12.5522 17.9453 17.3923H23.7429C23.7429 7.93303 18.419 0.235352 11.8725 0.235352Z" fill="white"/>
<path d="M11.8721 41.4822V49.8631C18.4186 49.8631 23.7425 42.1683 23.7425 32.709H17.9429C17.9429 37.5462 15.2182 41.4822 11.8721 41.4822Z" fill="white"/>
</svg>
