<?xml version="1.0" standalone="no"?>
<!DOCTYPE svg PUBLIC "-//W3C//DTD SVG 20010904//EN"
 "http://www.w3.org/TR/2001/REC-SVG-20010904/DTD/svg10.dtd">
<svg version="1.0" xmlns="http://www.w3.org/2000/svg"
 width="664.000000pt" height="172.000000pt" viewBox="0 0 664.000000 172.000000"
 preserveAspectRatio="xMidYMid meet">
<metadata>
Created by potrace 1.16, written by Peter Selinger 2001-2019
</metadata>
<g transform="translate(0.000000,172.000000) scale(0.100000,-0.100000)"
fill="#000000" stroke="none">
<path d="M515 1688 c10 -44 48 -118 82 -158 40 -48 126 -101 299 -184 159 -77
184 -98 184 -154 0 -74 -84 -112 -217 -97 -80 9 -227 48 -297 79 -32 14 -62
26 -67 26 -5 0 -9 -72 -9 -160 l0 -161 48 -20 c108 -47 189 -61 352 -63 122 0
169 3 220 18 146 40 249 120 303 234 27 57 33 81 35 159 6 153 -33 242 -143
325 -28 21 -119 72 -203 113 l-153 75 -220 0 -221 0 7 -32z"/>
<path d="M1670 1265 l0 -455 185 0 185 0 0 224 0 224 108 7 c191 12 291 46
382 131 73 69 130 195 130 291 l0 33 -185 0 c-168 0 -186 -2 -191 -17 -19 -58
-31 -77 -62 -101 -29 -22 -48 -27 -109 -30 l-73 -4 0 76 0 76 -185 0 -185 0 0
-455z"/>
<path d="M3960 515 l0 -515 185 0 185 0 0 515 0 515 -185 0 -185 0 0 -515z"/>
<path d="M4620 515 l0 -515 166 0 167 0 -6 292 c-3 161 -8 301 -12 311 -4 9
-3 17 1 17 5 0 81 -139 169 -310 l160 -310 333 0 332 0 0 515 0 515 -166 0
-166 0 4 -474 3 -473 -28 51 c-15 28 -127 241 -249 474 l-220 422 -244 0 -244
0 0 -515z"/>
</g>
</svg>
