<svg width="25" height="16" viewBox="0 0 25 16" fill="none" xmlns="http://www.w3.org/2000/svg">
<path d="M1.76923 8.87506C1.2342 8.87506 0.800476 8.48331 0.800476 8.00006C0.800476 7.51681 1.2342 7.12506 1.76923 7.12506H23.2308C23.7658 7.12506 24.1995 7.51681 24.1995 8.00006C24.1995 8.48331 23.7658 8.87506 23.2308 8.87506H1.76923ZM1.84375 15.8751C1.30872 15.8751 0.874995 15.4833 0.874995 15.0001C0.874995 14.5168 1.30872 14.1251 1.84375 14.1251H23.2337C23.7688 14.1251 24.2025 14.5168 24.2025 15.0001C24.2025 15.4833 23.7688 15.8751 23.2337 15.8751H1.84375ZM1.84375 1.87506C1.30872 1.87506 0.874995 1.48331 0.874995 1.00006C0.874995 0.516812 1.30872 0.125061 1.84375 0.125061H23.2337C23.7688 0.125061 24.2025 0.516812 24.2025 1.00006C24.2025 1.48331 23.7688 1.87506 23.2337 1.87506H1.84375Z" fill="black"/>
</svg>
