<svg width="100" height="100" viewBox="0 0 100 100" fill="none" xmlns="http://www.w3.org/2000/svg">
<path d="M27.8004 2.00001C28.4811 1.9959 29.1356 2.26203 29.6204 2.74001L72.1904 43.79C73.0257 44.5942 73.6903 45.5587 74.1442 46.6257C74.5981 47.6928 74.832 48.8404 74.832 50C74.832 51.1596 74.5981 52.3072 74.1442 53.3743C73.6903 54.4413 73.0257 55.4058 72.1904 56.21L29.6204 97.21C29.3883 97.5009 29.097 97.739 28.7657 97.9085C28.4345 98.0779 28.071 98.1749 27.6993 98.193C27.3277 98.211 26.9565 98.1497 26.6104 98.0131C26.2643 97.8765 25.9513 97.6678 25.6921 97.4008C25.433 97.1338 25.2337 96.8146 25.1075 96.4646C24.9813 96.1146 24.9312 95.7417 24.9603 95.3707C24.9895 94.9998 25.0973 94.6393 25.2766 94.3133C25.456 93.9873 25.7027 93.7032 26.0004 93.48L68.5404 52.43C68.8664 52.1148 69.1256 51.7372 69.3027 51.3198C69.4797 50.9023 69.571 50.4535 69.571 50C69.571 49.5465 69.4797 49.0977 69.3027 48.6802C69.1256 48.2628 68.8664 47.8852 68.5404 47.57L26.0004 6.52C25.6256 6.15745 25.3671 5.69168 25.2577 5.18188C25.1482 4.67207 25.1928 4.14124 25.3857 3.65682C25.5786 3.1724 25.9111 2.75625 26.3411 2.46125C26.771 2.16625 27.279 2.0057 27.8004 2.00001V2.00001Z" fill="black"/>
</svg>
