<svg width="50" height="50" viewBox="0 0 50 50" fill="none" xmlns="http://www.w3.org/2000/svg">
<path d="M42.3789 34.7488C40.9674 34.7499 39.5843 35.1486 38.3857 35.8998C37.187 36.6511 36.2205 37.7251 35.5952 39.0006L13.8635 29.2486C14.6852 28.0102 15.1274 26.5556 15.1351 25.0658C15.1427 23.576 14.7156 22.1169 13.9068 20.8699L35.419 10.6673C36.1832 12.4691 37.6037 13.9069 39.388 14.6849C41.1723 15.4628 43.1845 15.5216 45.0105 14.8491C46.8365 14.1767 48.3372 12.8241 49.2037 11.07C50.0702 9.31583 50.2365 7.29357 49.6684 5.41954C49.1003 3.5455 47.8411 1.96232 46.1499 0.995926C44.4587 0.0295345 42.4643 -0.246513 40.5773 0.224613C38.6903 0.69574 37.0543 1.87818 36.0061 3.52851C34.9579 5.17883 34.5773 7.17143 34.9427 9.09609L12.8515 19.5758C11.7905 18.529 10.4472 17.8202 8.98924 17.5378C7.53125 17.2554 6.02304 17.4118 4.65266 17.9876C3.28228 18.5634 2.11035 19.533 1.28301 20.7756C0.455659 22.0183 0.00949766 23.4789 0.000149952 24.9754C-0.00919775 26.4719 0.418682 27.9381 1.23044 29.1911C2.0422 30.4441 3.20192 31.4286 4.565 32.0217C5.92808 32.6148 7.43422 32.7904 8.89561 32.5265C10.357 32.2626 11.709 31.5709 12.783 30.5377L35.0363 40.5241C34.6545 42.065 34.7594 43.6875 35.3364 45.1654C35.9133 46.6433 36.9335 47.9028 38.2547 48.7682C39.5758 49.6336 41.132 50.0617 42.7061 49.9928C44.2802 49.9239 45.7938 49.3615 47.0355 48.384C48.2773 47.4064 49.1854 46.0626 49.6331 44.5398C50.0808 43.0171 50.0459 41.3915 49.533 39.8898C49.0202 38.3881 48.0552 37.0852 46.7725 36.1628C45.4898 35.2405 43.9535 34.7448 42.3779 34.7448L42.3789 34.7488Z" fill="black"/>
</svg>
